<svg xmlns="http://www.w3.org/2000/svg" xmlns:xlink="http://www.w3.org/1999/xlink" version="1.1" enable-background="new 0 0 470 470" width="500" height="500" style=""><rect id="backgroundrect" width="100%" height="100%" x="0" y="0" fill="none" stroke="none" style="" class=""/>
  
<g class="currentLayer" style=""><title>Layer 1</title><g id="svg_1" class="" stroke="#000000" stroke-opacity="1" stroke-width="5">
    <path d="M488.51417769536334,448.75177581184164 H53.24823925561289 V13.48583737209123 C53.24823925561289,9.16758224151053 49.74838834461354,5.6666887773651755 45.42909066088683,5.6666887773651755 S37.60994206616077,9.16758224151053 37.60994206616077,13.48583737209123 v66.0280183933047 H14.152496281982609 c-4.319297683726672,0 -7.819148594726055,3.5008934641453457 -7.819148594726055,7.819148594726055 s3.4998509109993825,7.819148594726055 7.819148594726055,7.819148594726055 H37.60994206616077 v58.20886979857864 H14.152496281982609 c-4.319297683726672,0 -7.819148594726055,3.5008934641453457 -7.819148594726055,7.819148594726055 s3.4998509109993825,7.819148594726055 7.819148594726055,7.819148594726055 H37.60994206616077 V227.20923229460342 H14.152496281982609 c-4.319297683726672,0 -7.819148594726055,3.5008934641453457 -7.819148594726055,7.819148594726055 s3.4998509109993825,7.819148594726055 7.819148594726055,7.819148594726055 H37.60994206616077 v58.20886979857864 H14.152496281982609 c-4.319297683726672,0 -7.819148594726055,3.5008934641453457 -7.819148594726055,7.819148594726055 s3.4998509109993825,7.819148594726055 7.819148594726055,7.819148594726055 H37.60994206616077 v58.20886979857864 H14.152496281982609 c-4.319297683726672,0 -7.819148594726055,3.5008934641453457 -7.819148594726055,7.819148594726055 s3.4998509109993825,7.819148594726055 7.819148594726055,7.819148594726055 H37.60994206616077 V456.5709244065677 c0,4.3182551305807095 3.4998509109993825,7.819148594726055 7.819148594726055,7.819148594726055 h115.54929282656971 v23.457445784178166 c0,4.3182551305807095 3.4998509109993825,7.819148594726055 7.819148594726055,7.819148594726055 s7.819148594726055,-3.5008934641453457 7.819148594726055,-7.819148594726055 V464.39007300129373 h180.70990700243283 v23.457445784178166 c0,4.3182551305807095 3.4998509109993825,7.819148594726055 7.819148594726055,7.819148594726055 s7.819148594726055,-3.5008934641453457 7.819148594726055,-7.819148594726055 V464.39007300129373 H488.51417769536334 c4.319297683726672,0 7.819148594726055,-3.5008934641453457 7.819148594726055,-7.819148594726055 S492.83347537909,448.75177581184164 488.51417769536334,448.75177581184164 z" id="svg_2" stroke="#000000" stroke-opacity="1" stroke-width="5"/>
    <path d="M87.13121649942579,433.11347862238955 c4.319297683726672,0 7.819148594726055,-3.5008934641453457 7.819148594726055,-7.819148594726055 v-182.44680054360796 h66.0280183933047 v182.44680054360796 c0,4.3182551305807095 3.4998509109993825,7.819148594726055 7.819148594726055,7.819148594726055 s7.819148594726055,-3.5008934641453457 7.819148594726055,-7.819148594726055 V316.69469647208643 H238.30142266412955 V425.2943300276635 c0,4.3182551305807095 3.4998509109993825,7.819148594726055 7.819148594726055,7.819148594726055 s7.819148594726055,-3.5008934641453457 7.819148594726055,-7.819148594726055 V308.8755478773603 c0,-4.3182551305807095 -3.4998509109993825,-7.819148594726055 -7.819148594726055,-7.819148594726055 h-69.50389058194692 V235.02838088932947 c0,-4.3182551305807095 -3.4998509109993825,-7.819148594726055 -7.819148594726055,-7.819148594726055 H87.13121649942579 c-4.319297683726672,0 -7.819148594726055,3.5008934641453457 -7.819148594726055,7.819148594726055 v190.26594913833404 C79.31206790469975,429.61258515824426 82.81191881569909,433.11347862238955 87.13121649942579,433.11347862238955 z" id="svg_3" stroke="#000000" stroke-opacity="1" stroke-width="5"/>
    <path d="M287.8226970973946,433.11347862238955 c4.319297683726672,0 7.819148594726055,-3.5008934641453457 7.819148594726055,-7.819148594726055 V95.15215295484802 h61.684741987220875 V425.2943300276635 c0,4.3182551305807095 3.4998509109993825,7.819148594726055 7.819148594726055,7.819148594726055 s7.819148594726055,-3.5008934641453457 7.819148594726055,-7.819148594726055 V169.0003624960248 H438.9929032620983 V425.2943300276635 c0,4.3182551305807095 3.4998509109993825,7.819148594726055 7.819148594726055,7.819148594726055 s7.819148594726055,-3.5008934641453457 7.819148594726055,-7.819148594726055 V161.18121390129875 c0,-4.3182551305807095 -3.4998509109993825,-7.819148594726055 -7.819148594726055,-7.819148594726055 h-73.84716698803075 V87.33300436012196 c0,-4.3182551305807095 -3.4998509109993825,-7.819148594726055 -7.819148594726055,-7.819148594726055 H287.8226970973946 c-4.319297683726672,0 -7.819148594726055,3.5008934641453457 -7.819148594726055,7.819148594726055 V425.2943300276635 C280.00354850266854,429.61258515824426 283.5033994136679,433.11347862238955 287.8226970973946,433.11347862238955 z" id="svg_4" stroke="#000000" stroke-opacity="1" stroke-width="5"/>
  </g></g></svg>