<svg xmlns="http://www.w3.org/2000/svg" xmlns:xlink="http://www.w3.org/1999/xlink" version="1.1" style="" xml:space="preserve" width="109" height="111"><rect id="backgroundrect" width="100%" height="100%" x="0" y="0" fill="none" stroke="none"/>
















<g class="currentLayer" style=""><title>Layer 1</title><g id="svg_1" class="">
	<path d="M108.44009360572696,81.07112142466333 c0.6023918238878252,-0.6963600010573865 0.9445183472037315,-3.692928021222353 -1.741997922033072,-3.921045952603221 H16.621609849601985 C7.456712085872889,77.15007547206012 0,84.74298195073334 0,94.07701496425595 C0,103.40855612351325 7.456712085872889,111.00100953777459 16.621609849601985,111.00100953777459 h90.0764858340919 c3.17679380980134,-0.3647168515622617 2.3352693379521368,-3.2541351383179427 1.7193081265985968,-3.9461910274624827 C100.66372234299779,98.32766527650085 100.6726203019917,90.07305822427895 108.44009360572696,81.07112142466333 zM101.91633252036571,106.27735997952847 H16.621609849601985 c-6.607401899904013,0 -11.982658928126096,-5.473018095493317 -11.982658928126096,-12.200345015272498 c0,-6.72777998419106 5.375257028222085,-12.203289933949709 11.982658928126096,-12.203289933949709 h85.35812062859536 C96.60914487844705,90.07079290221957 96.58645508301258,98.24905860103992 101.91633252036571,106.27735997952847 z" id="svg_2"/>
	<path d="M2.3019019917249683,72.42574631719616 h90.07626338511706 c9.164897763729096,0 16.62183229857683,-7.592906478673219 16.62183229857683,-16.924447637930513 c0,-9.333579949110746 -7.456712085872889,-16.926712959989906 -16.62183229857683,-16.926712959989906 H41.98702155354619 v-4.723423026040196 h64.7110741301477 c3.17679380980134,-0.3647168515622617 2.3352693379521368,-3.2541351383179427 1.7193081265985968,-3.9461910274624827 c-7.753681467294693,-8.727379766017199 -7.744561059325933,-16.981986818239093 0.02268979543447495,-25.983697085648775 c0.6023918238878252,-0.6963600010573865 0.9445183472037315,-3.6933810856342313 -1.741997922033072,-3.92127248480916 H16.621609849601985 C7.456712085872889,0.00022862752106789209 0,7.593361638400227 0,16.926941587510974 c0,9.331767691463233 7.456712085872889,16.924447637930513 16.621609849601985,16.924447637930513 h2.9630203449726107 v4.723423026040196 H2.3019019917249683 c-2.6865162692368028,0.22789139917492876 -2.344389745920897,3.224459419339895 -1.741997922033072,3.921045952603221 c7.767473303735256,9.001936799615622 7.7763712627291675,17.256543851837517 0.02268979543447495,25.983923617854714 C-0.033367346227169054,69.17161117887821 -0.8748918180763724,72.0610294656339 2.3019019917249683,72.42574631719616 zM16.621609849601985,29.127739667195353 c-6.607401899904013,0 -11.982658928126096,-5.473018095493317 -11.982658928126096,-12.200798079684377 c0,-6.727553451985121 5.375257028222085,-12.202836869537832 11.982658928126096,-12.202836869537832 h85.35812062859536 c-5.370585599750281,8.196841339707374 -5.393275395184755,16.375107038527727 -0.0633979578316212,24.403861481428144 H41.98702155354619 V16.925808926481274 c0,-1.3052785706222059 -1.0375020186901092,-2.3618247791230678 -2.3194754607379435,-2.3618247791230678 H21.904105655312538 c-1.2821958910226823,0 -2.3194754607379435,1.0565462085008621 -2.3194754607379435,2.3618247791230678 v12.201930740714072 H16.621609849601985 zM37.3480706320703,19.287633705604343 v29.51261578977108 L32.217285027205946,44.706359469640525 c-0.4213183583617211,-0.3345880681723358 -0.9264999802410603,-0.502674964979291 -1.4314591531455518,-0.502674964979291 c-0.5051816218793391,0 -1.0103632437586785,0.1680868968069554 -1.4316816021203995,0.502674964979291 l-5.1305631558895115,4.093890025734901 V19.287633705604343 H37.3480706320703 zM19.584630194574594,43.298235277521876 v10.352295279219746 c-0.13435918080806736,2.055553236693144 1.400983643591404,4.068291886463761 3.750934613883496,1.8589232819378374 l7.450261065602302,-5.943525487229228 l7.450038616627455,5.943525487229228 c2.440710152029991,2.0140978430062533 3.9377917527556425,0.11847634370625024 3.751157062858343,-1.8589232819378374 v-10.352295279219746 h50.39114382329583 c6.607401899904013,0 11.982658928126096,5.475509949758648 11.982658928126096,12.20306340174377 c0,6.727553451985121 -5.375257028222085,12.200798079684377 -11.982658928126096,12.200798079684377 H7.083665155053139 c5.330099886327981,-8.02852791069448 5.307187641918659,-16.207020141720772 -0.0633979578316212,-24.404088013634084 H19.584630194574594 z" id="svg_3"/>
</g><g id="svg_4" class="">
</g><g id="svg_5" class="">
</g><g id="svg_6" class="">
</g><g id="svg_7" class="">
</g><g id="svg_8" class="">
</g><g id="svg_9" class="">
</g><g id="svg_10" class="">
</g><g id="svg_11" class="">
</g><g id="svg_12" class="">
</g><g id="svg_13" class="">
</g><g id="svg_14" class="">
</g><g id="svg_15" class="">
</g><g id="svg_16" class="">
</g><g id="svg_17" class="">
</g><g id="svg_18" class="">
</g></g></svg>