<?xml version="1.0" encoding="iso-8859-1"?>
<!-- Generator: Adobe Illustrator 19.0.0, SVG Export Plug-In . SVG Version: 6.00 Build 0)  -->
<svg version="1.1" id="Layer_1" xmlns="http://www.w3.org/2000/svg" xmlns:xlink="http://www.w3.org/1999/xlink" x="0px" y="0px"
	 viewBox="0 0 339.254 339.254" style="enable-background:new 0 0 339.254 339.254;" xml:space="preserve">
<g>
	<path style="fill:#A7A9AC;" d="M292.961,265.497c-17.54,0-33.16-11.09-38.94-27.65l-6.86-19.68c-3.12-8.95-11.56-14.95-21.05-14.95
		h-5.02c0.6-1.91,0.92-3.95,0.92-6.06c0-11.21-9.08-20.29-20.29-20.29c-11.2,0-20.28,9.08-20.28,20.29c0,2.11,0.32,4.15,0.92,6.06
		h-25.48c0.6-1.91,0.92-3.95,0.92-6.06c0-11.21-9.08-20.29-20.28-20.29c-11.21,0-20.29,9.08-20.29,20.29c0,2.11,0.32,4.15,0.92,6.06
		h-5.02c-9.49,0-17.93,6-21.05,14.95l-6.86,19.68c-5.771,16.535-21.363,27.65-38.94,27.65c-28.39,0-48.28-28.01-38.94-54.81
		l42.55-121.98c3.12-8.96,11.56-14.95,21.05-14.95h197.36c9.49,0,17.93,5.99,21.05,14.95l42.55,121.98
		C341.239,237.466,321.36,265.497,292.961,265.497z"/>
	<path style="fill:#80D0E1;" d="M117.236,73.752v37.425h104.77V73.752C210.46,73.752,129.278,73.752,117.236,73.752z"/>
	<g>
		<circle style="fill:#5AC2AD;" cx="256.463" cy="123.088" r="8.359"/>
		<circle style="fill:#80D0E1;" cx="256.463" cy="168.512" r="8.359"/>
		<circle style="fill:#FF7876;" cx="233.751" cy="145.8" r="8.359"/>
		<circle style="fill:#FFE49C;" cx="279.175" cy="145.8" r="8.359"/>
	</g>
	<polygon style="fill:#808285;" points="113.198,137.441 90.486,137.441 90.486,114.729 73.767,114.729 73.767,137.441 
		51.055,137.441 51.055,154.16 73.767,154.16 73.767,176.872 90.486,176.872 90.486,154.16 113.198,154.16 	"/>
	<path style="fill:#808285;" d="M157.801,197.157c0,2.11-0.32,4.15-0.92,6.06c-2.58,8.24-10.27,14.22-19.36,14.22
		c-9.1,0-16.79-5.98-19.37-14.22c-0.6-1.91-0.92-3.95-0.92-6.06c0-11.21,9.08-20.29,20.29-20.29
		C148.721,176.867,157.801,185.947,157.801,197.157z"/>
	<g>
		<path style="fill:#808285;" d="M222.011,197.157c0,2.11-0.32,4.15-0.92,6.06c-2.58,8.24-10.27,14.22-19.37,14.22
			c-9.09,0-16.78-5.98-19.36-14.22c-0.6-1.91-0.92-3.95-0.92-6.06c0-11.21,9.08-20.29,20.28-20.29
			C212.931,176.867,222.011,185.947,222.011,197.157z"/>
		<g>
			<path style="fill:#393654;" d="M336.623,209.04l-42.55-121.978c-3.813-10.949-14.169-18.306-25.772-18.306
				c-7.632,0-181.188,0-197.36,0c-11.602,0-21.959,7.356-25.771,18.303L2.619,209.042c-10.47,30.044,11.738,61.456,43.662,61.456
				c19.941,0,37.259-12.66,43.661-31.005l6.86-19.679c2.418-6.936,8.98-11.596,16.329-11.596h1.648
				c4.178,8.634,12.9,14.22,22.742,14.22c9.839,0,18.558-5.588,22.733-14.22h18.735c4.177,8.634,12.895,14.22,22.732,14.22
				c9.844,0,18.566-5.588,22.743-14.22h1.647c7.349,0,13.911,4.66,16.329,11.596l6.86,19.682
				c6.473,18.544,24.019,31.003,43.661,31.003C324.452,270.497,347.215,239.425,336.623,209.04z M122.236,78.757h94.771v27.42
				h-94.771V78.757z M137.521,212.437c-6.726,0-12.592-4.306-14.6-10.719c-0.458-1.458-0.69-2.992-0.69-4.561
				c0-8.431,6.859-15.29,15.29-15.29c8.426,0,15.28,6.859,15.28,15.29C152.802,205.524,146.088,212.437,137.521,212.437z
				 M201.721,212.437c-8.506,0-15.28-6.847-15.28-15.28c0-8.431,6.854-15.29,15.28-15.29c8.431,0,15.29,6.859,15.29,15.29
				C217.011,205.525,210.297,212.437,201.721,212.437z M292.961,260.497c-15.395,0-29.146-9.765-34.219-24.296l-6.86-19.68
				c-3.72-10.671-13.653-17.93-24.893-18.29c0.609-14.367-10.915-26.364-25.268-26.364c-14.242,0-25.842,11.863-25.259,26.35H162.78
				c0.598-14.38-10.931-26.35-25.258-26.35c-14.356,0-25.877,12-25.268,26.364c-11.24,0.36-21.173,7.619-24.894,18.29l-6.859,19.678
				c-5.04,14.439-18.651,24.298-34.219,24.298c-25.038,0-42.42-24.633-34.219-48.163l42.55-121.982
				c2.415-6.935,8.977-11.595,16.328-11.595h41.295v32.42c0,2.761,2.239,5,5,5h104.771c2.761,0,5-2.239,5-5v-32.42h41.295
				c7.351,0,13.913,4.66,16.329,11.597l42.55,121.979C335.502,236.203,317.602,260.497,292.961,260.497z"/>
			<path style="fill:#393654;" d="M256.463,136.448c7.366,0,13.359-5.993,13.359-13.359c0-7.366-5.993-13.359-13.359-13.359
				c-7.366,0-13.359,5.993-13.359,13.359C243.104,130.455,249.097,136.448,256.463,136.448z M256.463,119.729
				c1.853,0,3.359,1.507,3.359,3.359c0,1.853-1.507,3.359-3.359,3.359c-1.852,0-3.359-1.507-3.359-3.359
				C253.104,121.236,254.611,119.729,256.463,119.729z"/>
			<path style="fill:#393654;" d="M256.463,155.153c-7.366,0-13.359,5.993-13.359,13.359s5.993,13.359,13.359,13.359
				c7.366,0,13.359-5.993,13.359-13.359C269.823,161.146,263.829,155.153,256.463,155.153z M256.463,171.872
				c-1.853,0-3.359-1.507-3.359-3.359c0-1.853,1.507-3.359,3.359-3.359c1.852,0,3.359,1.507,3.359,3.359
				C259.823,170.365,258.316,171.872,256.463,171.872z"/>
			<path style="fill:#393654;" d="M247.111,145.8c0-7.366-5.993-13.359-13.359-13.359s-13.359,5.993-13.359,13.359
				s5.993,13.359,13.359,13.359C241.117,159.16,247.111,153.167,247.111,145.8z M233.751,149.16c-1.853,0-3.359-1.507-3.359-3.359
				c0-1.852,1.507-3.359,3.359-3.359c1.852,0,3.359,1.507,3.359,3.359C237.111,147.653,235.604,149.16,233.751,149.16z"/>
			<path style="fill:#393654;" d="M279.176,132.441c-7.366,0-13.359,5.993-13.359,13.359s5.993,13.359,13.359,13.359
				s13.359-5.993,13.359-13.359C292.534,138.434,286.542,132.441,279.176,132.441z M279.176,149.16
				c-1.853,0-3.359-1.507-3.359-3.359c0-1.852,1.507-3.359,3.359-3.359c1.852,0,3.359,1.507,3.359,3.359
				C282.534,147.653,281.028,149.16,279.176,149.16z"/>
			<path style="fill:#393654;" d="M113.198,132.441H95.486v-17.712c0-2.761-2.239-5-5-5H73.767c-2.761,0-5,2.239-5,5v17.712H51.055
				c-2.761,0-5,2.239-5,5v16.719c0,2.761,2.239,5,5,5h17.712v17.712c0,2.761,2.239,5,5,5h16.719c2.761,0,5-2.239,5-5V159.16h17.712
				c2.761,0,5-2.239,5-5v-16.719C118.198,134.68,115.959,132.441,113.198,132.441z M108.198,149.16H90.486c-2.761,0-5,2.239-5,5
				v17.712h-6.719V154.16c0-2.761-2.239-5-5-5H56.055v-6.719h17.712c2.761,0,5-2.239,5-5v-17.712h6.719v17.712c0,2.761,2.239,5,5,5
				h17.712V149.16z"/>
		</g>
	</g>
</g>
<g>
</g>
<g>
</g>
<g>
</g>
<g>
</g>
<g>
</g>
<g>
</g>
<g>
</g>
<g>
</g>
<g>
</g>
<g>
</g>
<g>
</g>
<g>
</g>
<g>
</g>
<g>
</g>
<g>
</g>
</svg>
